<svg xmlns="http://www.w3.org/2000/svg" xmlns:xlink="http://www.w3.org/1999/xlink" width="1080" zoomAndPan="magnify" viewBox="0 0 810 809.999993" height="1080" preserveAspectRatio="xMidYMid meet" version="1.0"><defs><filter x="0%" y="0%" width="100%" height="100%" id="57fe79f7b0"><feColorMatrix values="0 0 0 0 1 0 0 0 0 1 0 0 0 0 1 0 0 0 1 0" color-interpolation-filters="sRGB"/></filter><mask id="23b914bf86"><g filter="url(#57fe79f7b0)"><rect x="-81" width="972" fill="#000000" y="-80.999999" height="971.999992" fill-opacity="0.39"/></g></mask><clipPath id="e67ce7ee89"><path d="M 0.410156 0.410156 L 368 0.410156 L 368 368 L 0.410156 368 Z M 0.410156 0.410156 " clip-rule="nonzero"/></clipPath><clipPath id="3575da529a"><path d="M 0.410156 368 L 368 368 L 368 735.589844 L 0.410156 735.589844 Z M 0.410156 368 " clip-rule="nonzero"/></clipPath><clipPath id="e97f403a66"><path d="M 368 0.410156 L 735.589844 0.410156 L 735.589844 368 L 368 368 Z M 368 0.410156 " clip-rule="nonzero"/></clipPath><clipPath id="a63c7ff8ce"><path d="M 368 368 L 735.589844 368 L 735.589844 735.589844 L 368 735.589844 Z M 368 368 " clip-rule="nonzero"/></clipPath><clipPath id="6efe9d9e1a"><rect x="0" width="736" y="0" height="736"/></clipPath></defs><g mask="url(#23b914bf86)"><g transform="matrix(1, 0, 0, 1, 37, 37)"><g clip-path="url(#6efe9d9e1a)"><g clip-path="url(#e67ce7ee89)"><path fill="#f7931e" d="M 73.929688 0.410156 L 368 0.410156 L 368 368 L 0.410156 368 L 0.410156 73.929688 C 0.410156 33.371094 33.371094 0.410156 73.929688 0.410156 Z M 73.929688 0.410156 " fill-opacity="1" fill-rule="nonzero"/></g><g clip-path="url(#3575da529a)"><path fill="#29abe2" d="M 0.410156 368 L 368 368 L 368 735.589844 L 73.929688 735.589844 C 33.371094 735.589844 0.410156 702.628906 0.410156 662.070312 Z M 0.410156 368 " fill-opacity="1" fill-rule="nonzero"/></g><g clip-path="url(#e97f403a66)"><path fill="#e6e6e6" d="M 368 0.410156 L 662.070312 0.410156 C 702.628906 0.410156 735.589844 33.371094 735.589844 73.929688 L 735.589844 368 L 368 368 Z M 368 0.410156 " fill-opacity="1" fill-rule="nonzero"/></g><g clip-path="url(#a63c7ff8ce)"><path fill="#8cc63f" d="M 368 368 L 735.589844 368 L 735.589844 662.070312 C 735.589844 702.628906 702.628906 735.589844 662.070312 735.589844 L 368 735.589844 Z M 368 368 " fill-opacity="1" fill-rule="nonzero"/></g><path fill="#ffcf00" d="M 233.21875 184.207031 C 233.21875 185.8125 233.140625 187.414062 232.980469 189.011719 C 232.824219 190.605469 232.589844 192.191406 232.277344 193.769531 C 231.960938 195.34375 231.574219 196.898438 231.105469 198.433594 C 230.640625 199.96875 230.101562 201.480469 229.488281 202.960938 C 228.871094 204.445312 228.1875 205.894531 227.429688 207.308594 C 226.671875 208.726562 225.847656 210.101562 224.957031 211.433594 C 224.066406 212.769531 223.109375 214.058594 222.09375 215.296875 C 221.074219 216.539062 219.996094 217.726562 218.863281 218.863281 C 217.726562 219.996094 216.539062 221.074219 215.296875 222.09375 C 214.058594 223.109375 212.769531 224.066406 211.433594 224.957031 C 210.101562 225.847656 208.726562 226.671875 207.308594 227.429688 C 205.894531 228.1875 204.445312 228.871094 202.960938 229.488281 C 201.480469 230.101562 199.96875 230.640625 198.433594 231.105469 C 196.898438 231.574219 195.34375 231.960938 193.769531 232.277344 C 192.191406 232.589844 190.605469 232.824219 189.011719 232.980469 C 187.414062 233.140625 185.8125 233.21875 184.207031 233.21875 C 182.601562 233.21875 181 233.140625 179.402344 232.980469 C 177.804688 232.824219 176.21875 232.589844 174.644531 232.277344 C 173.070312 231.960938 171.515625 231.574219 169.976562 231.105469 C 168.441406 230.640625 166.933594 230.101562 165.449219 229.488281 C 163.96875 228.871094 162.515625 228.1875 161.101562 227.429688 C 159.6875 226.671875 158.3125 225.847656 156.976562 224.957031 C 155.640625 224.066406 154.355469 223.109375 153.113281 222.09375 C 151.871094 221.074219 150.683594 219.996094 149.550781 218.863281 C 148.414062 217.726562 147.335938 216.539062 146.320312 215.296875 C 145.300781 214.058594 144.347656 212.769531 143.453125 211.433594 C 142.5625 210.101562 141.738281 208.726562 140.980469 207.308594 C 140.226562 205.894531 139.539062 204.445312 138.925781 202.960938 C 138.3125 201.480469 137.769531 199.96875 137.304688 198.433594 C 136.839844 196.898438 136.449219 195.34375 136.136719 193.769531 C 135.824219 192.191406 135.585938 190.605469 135.429688 189.011719 C 135.273438 187.414062 135.195312 185.8125 135.195312 184.207031 C 135.195312 182.601562 135.273438 181 135.429688 179.402344 C 135.585938 177.804688 135.824219 176.21875 136.136719 174.644531 C 136.449219 173.070312 136.839844 171.515625 137.304688 169.976562 C 137.769531 168.441406 138.3125 166.933594 138.925781 165.449219 C 139.539062 163.96875 140.226562 162.515625 140.980469 161.101562 C 141.738281 159.6875 142.5625 158.3125 143.453125 156.976562 C 144.347656 155.640625 145.300781 154.355469 146.320312 153.113281 C 147.335938 151.871094 148.414062 150.683594 149.550781 149.550781 C 150.683594 148.414062 151.871094 147.335938 153.113281 146.320312 C 154.355469 145.300781 155.640625 144.347656 156.976562 143.453125 C 158.3125 142.5625 159.6875 141.738281 161.101562 140.980469 C 162.515625 140.226562 163.96875 139.539062 165.449219 138.925781 C 166.933594 138.3125 168.441406 137.769531 169.976562 137.304688 C 171.515625 136.839844 173.070312 136.449219 174.644531 136.136719 C 176.21875 135.824219 177.804688 135.585938 179.402344 135.429688 C 181 135.273438 182.601562 135.195312 184.207031 135.195312 C 185.8125 135.195312 187.414062 135.273438 189.011719 135.429688 C 190.605469 135.585938 192.191406 135.824219 193.769531 136.136719 C 195.34375 136.449219 196.898438 136.839844 198.433594 137.304688 C 199.96875 137.769531 201.480469 138.3125 202.960938 138.925781 C 204.445312 139.539062 205.894531 140.226562 207.308594 140.980469 C 208.726562 141.738281 210.101562 142.5625 211.433594 143.453125 C 212.769531 144.347656 214.058594 145.300781 215.296875 146.320312 C 216.539062 147.335938 217.726562 148.414062 218.863281 149.550781 C 219.996094 150.683594 221.074219 151.871094 222.09375 153.113281 C 223.109375 154.355469 224.066406 155.640625 224.957031 156.976562 C 225.847656 158.3125 226.671875 159.6875 227.429688 161.101562 C 228.1875 162.515625 228.871094 163.96875 229.488281 165.449219 C 230.101562 166.933594 230.640625 168.441406 231.105469 169.976562 C 231.574219 171.515625 231.960938 173.070312 232.277344 174.644531 C 232.589844 176.21875 232.824219 177.804688 232.980469 179.402344 C 233.140625 181 233.21875 182.601562 233.21875 184.207031 Z M 233.21875 184.207031 " fill-opacity="1" fill-rule="nonzero"/><path fill="#ffcf00" d="M 184.207031 110.6875 C 177.464844 110.6875 171.953125 105.175781 171.953125 98.433594 L 171.953125 61.675781 C 171.953125 54.9375 177.464844 49.421875 184.207031 49.421875 C 190.945312 49.421875 196.457031 54.9375 196.457031 61.675781 L 196.457031 98.433594 C 196.457031 105.175781 190.945312 110.6875 184.207031 110.6875 Z M 184.207031 110.6875 " fill-opacity="1" fill-rule="nonzero"/><path fill="#ffcf00" d="M 141.320312 122.207031 C 137.03125 122.207031 132.988281 120 130.660156 116.078125 L 118.40625 94.882812 C 114.976562 89 117.058594 81.527344 122.941406 78.09375 C 128.824219 74.664062 136.296875 76.746094 139.726562 82.628906 L 151.980469 103.828125 C 155.410156 109.707031 153.328125 117.183594 147.445312 120.613281 C 145.488281 121.714844 143.402344 122.207031 141.320312 122.207031 Z M 141.320312 122.207031 " fill-opacity="1" fill-rule="nonzero"/><path fill="#ffcf00" d="M 107.011719 153.574219 C 105.050781 153.574219 102.96875 153.082031 101.132812 151.980469 L 68.046875 133.601562 C 62.167969 130.292969 59.960938 122.820312 63.269531 116.9375 C 66.578125 111.054688 74.050781 108.851562 79.933594 112.160156 L 113.015625 130.539062 C 118.898438 133.847656 121.101562 141.320312 117.796875 147.203125 C 115.589844 151.246094 111.421875 153.449219 107.011719 153.449219 Z M 107.011719 153.574219 " fill-opacity="1" fill-rule="nonzero"/><path fill="#ffcf00" d="M 98.433594 196.457031 L 73.929688 196.457031 C 67.191406 196.457031 61.675781 190.945312 61.675781 184.207031 C 61.675781 177.464844 67.191406 171.953125 73.929688 171.953125 L 98.433594 171.953125 C 105.175781 171.953125 110.6875 177.464844 110.6875 184.207031 C 110.6875 190.945312 105.175781 196.457031 98.433594 196.457031 Z M 98.433594 196.457031 " fill-opacity="1" fill-rule="nonzero"/><path fill="#ffcf00" d="M 73.929688 257.722656 C 69.640625 257.722656 65.476562 255.394531 63.148438 251.472656 C 59.839844 245.59375 62.042969 238.117188 67.925781 234.808594 L 101.007812 216.429688 C 106.890625 213.121094 114.363281 215.328125 117.671875 221.210938 C 120.980469 227.089844 118.773438 234.566406 112.894531 237.875 L 79.8125 256.253906 C 77.972656 257.355469 75.890625 257.847656 73.929688 257.847656 Z M 73.929688 257.722656 " fill-opacity="1" fill-rule="nonzero"/><path fill="#ffcf00" d="M 129.066406 291.910156 C 126.984375 291.910156 124.902344 291.417969 122.941406 290.316406 C 117.058594 286.886719 115.097656 279.410156 118.40625 273.53125 L 130.660156 252.332031 C 134.089844 246.449219 141.566406 244.492188 147.445312 247.796875 C 153.328125 251.230469 155.289062 258.703125 151.980469 264.585938 L 139.726562 285.78125 C 137.398438 289.703125 133.355469 291.910156 129.066406 291.910156 Z M 129.066406 291.910156 " fill-opacity="1" fill-rule="nonzero"/><path fill="#ffcf00" d="M 184.207031 318.988281 C 177.464844 318.988281 171.953125 313.472656 171.953125 306.734375 L 171.953125 269.976562 C 171.953125 263.238281 177.464844 257.722656 184.207031 257.722656 C 190.945312 257.722656 196.457031 263.238281 196.457031 269.976562 L 196.457031 306.734375 C 196.457031 313.472656 190.945312 318.988281 184.207031 318.988281 Z M 184.207031 318.988281 " fill-opacity="1" fill-rule="nonzero"/><path fill="#ffcf00" d="M 239.34375 291.910156 C 235.054688 291.910156 231.011719 289.703125 228.683594 285.78125 L 216.429688 264.585938 C 213 258.703125 215.082031 251.230469 220.964844 247.796875 C 226.847656 244.367188 234.320312 246.449219 237.75 252.332031 L 250.003906 273.53125 C 253.433594 279.410156 251.351562 286.886719 245.46875 290.316406 C 243.511719 291.417969 241.425781 291.910156 239.34375 291.910156 Z M 239.34375 291.910156 " fill-opacity="1" fill-rule="nonzero"/><path fill="#ffcf00" d="M 294.480469 257.722656 C 292.523438 257.722656 290.4375 257.234375 288.601562 256.128906 L 255.519531 237.75 C 249.636719 234.441406 247.429688 226.96875 250.738281 221.085938 C 254.046875 215.207031 261.523438 213 267.402344 216.308594 L 300.484375 234.6875 C 306.367188 237.996094 308.574219 245.46875 305.265625 251.351562 C 303.058594 255.394531 298.894531 257.601562 294.480469 257.601562 Z M 294.480469 257.722656 " fill-opacity="1" fill-rule="nonzero"/><path fill="#ffcf00" d="M 294.480469 196.457031 L 269.976562 196.457031 C 263.238281 196.457031 257.722656 190.945312 257.722656 184.207031 C 257.722656 177.464844 263.238281 171.953125 269.976562 171.953125 L 294.480469 171.953125 C 301.222656 171.953125 306.734375 177.464844 306.734375 184.207031 C 306.734375 190.945312 301.222656 196.457031 294.480469 196.457031 Z M 294.480469 196.457031 " fill-opacity="1" fill-rule="nonzero"/><path fill="#ffcf00" d="M 261.398438 153.574219 C 257.109375 153.574219 252.945312 151.246094 250.617188 147.324219 C 247.308594 141.441406 249.515625 133.96875 255.394531 130.660156 L 288.476562 112.28125 C 294.359375 108.972656 301.835938 111.179688 305.140625 117.058594 C 308.449219 122.941406 306.246094 130.414062 300.363281 133.722656 L 267.28125 152.101562 C 265.441406 153.207031 263.359375 153.695312 261.398438 153.695312 Z M 261.398438 153.574219 " fill-opacity="1" fill-rule="nonzero"/><path fill="#ffcf00" d="M 227.089844 122.207031 C 225.007812 122.207031 222.925781 121.714844 220.964844 120.613281 C 215.082031 117.183594 213.121094 109.707031 216.429688 103.828125 L 228.683594 82.628906 C 232.113281 76.746094 239.589844 74.789062 245.46875 78.09375 C 251.351562 81.527344 253.3125 89 250.003906 94.882812 L 237.75 116.078125 C 235.421875 120 231.378906 122.207031 227.089844 122.207031 Z M 227.089844 122.207031 " fill-opacity="1" fill-rule="nonzero"/><path fill="#ffc000" d="M 184.207031 135.195312 C 164.355469 135.195312 147.324219 147.078125 139.605469 164.109375 C 145.730469 161.292969 152.472656 159.699219 159.699219 159.699219 C 186.777344 159.699219 208.710938 181.632812 208.710938 208.710938 C 208.710938 215.941406 207.117188 222.679688 204.300781 228.804688 C 221.332031 221.085938 233.21875 204.054688 233.21875 184.207031 C 233.21875 157.125 211.285156 135.195312 184.207031 135.195312 Z M 184.207031 135.195312 " fill-opacity="1" fill-rule="nonzero"/><path fill="#7fcdee" d="M 551.792969 196.457031 C 545.054688 196.457031 539.542969 190.945312 539.542969 184.207031 L 539.542969 61.675781 C 539.542969 54.9375 545.054688 49.421875 551.792969 49.421875 C 558.53125 49.421875 564.046875 54.9375 564.046875 61.675781 L 564.046875 184.207031 C 564.046875 190.945312 558.53125 196.457031 551.792969 196.457031 Z M 551.792969 196.457031 " fill-opacity="1" fill-rule="nonzero"/><path fill="#7fcdee" d="M 551.792969 122.941406 C 548.609375 122.941406 545.546875 121.714844 543.09375 119.386719 C 538.316406 114.609375 538.316406 106.890625 543.09375 102.109375 L 579.851562 65.351562 C 584.632812 60.574219 592.351562 60.574219 597.128906 65.351562 C 601.910156 70.132812 601.910156 77.851562 597.128906 82.628906 L 560.371094 119.386719 C 557.921875 121.839844 554.855469 122.941406 551.671875 122.941406 Z M 551.792969 122.941406 " fill-opacity="1" fill-rule="nonzero"/><path fill="#7fcdee" d="M 551.792969 122.941406 C 548.609375 122.941406 545.546875 121.714844 543.09375 119.386719 L 506.335938 82.628906 C 501.558594 77.851562 501.558594 70.132812 506.335938 65.351562 C 511.113281 60.574219 518.832031 60.574219 523.613281 65.351562 L 560.371094 102.109375 C 565.148438 106.890625 565.148438 114.609375 560.371094 119.386719 C 557.921875 121.839844 554.855469 122.941406 551.671875 122.941406 Z M 551.792969 122.941406 " fill-opacity="1" fill-rule="nonzero"/><path fill="#7fcdee" d="M 551.792969 196.457031 C 550.570312 196.457031 549.34375 196.335938 548.242188 195.96875 L 425.710938 158.105469 C 419.21875 156.148438 415.664062 149.285156 417.625 142.789062 C 419.585938 136.296875 426.445312 132.742188 432.941406 134.703125 L 555.46875 172.566406 C 561.964844 174.527344 565.515625 181.386719 563.558594 187.882812 C 561.964844 193.152344 557.0625 196.582031 551.792969 196.582031 Z M 551.792969 196.457031 " fill-opacity="1" fill-rule="nonzero"/><path fill="#7fcdee" d="M 478.277344 173.789062 C 473.867188 173.789062 469.699219 171.460938 467.492188 167.296875 L 442.621094 120.980469 C 439.433594 114.976562 441.640625 107.625 447.644531 104.4375 C 453.648438 101.253906 461 103.460938 464.183594 109.464844 L 489.058594 155.777344 C 492.246094 161.78125 490.039062 169.136719 484.035156 172.320312 C 482.199219 173.300781 480.238281 173.789062 478.277344 173.789062 Z M 478.277344 173.789062 " fill-opacity="1" fill-rule="nonzero"/><path fill="#7fcdee" d="M 429.632812 197.316406 C 425.097656 197.316406 420.6875 194.742188 418.605469 190.453125 C 415.664062 184.328125 418.238281 176.976562 424.242188 174.035156 L 473.007812 150.386719 C 479.132812 147.445312 486.484375 150.019531 489.425781 156.023438 C 492.367188 162.027344 489.792969 169.503906 483.789062 172.441406 L 435.023438 196.089844 C 433.308594 196.949219 431.46875 197.316406 429.753906 197.316406 Z M 429.632812 197.316406 " fill-opacity="1" fill-rule="nonzero"/><path fill="#7fcdee" d="M 479.746094 295.09375 C 477.296875 295.09375 474.722656 294.359375 472.515625 292.765625 C 467.003906 288.722656 465.902344 281.125 469.820312 275.613281 L 541.871094 176.976562 C 545.914062 171.460938 553.507812 170.359375 559.023438 174.28125 C 564.539062 178.203125 565.640625 185.921875 561.71875 191.433594 L 489.671875 290.070312 C 487.222656 293.378906 483.546875 295.09375 479.746094 295.09375 Z M 479.746094 295.09375 " fill-opacity="1" fill-rule="nonzero"/><path fill="#7fcdee" d="M 457.203125 263.726562 C 451.320312 263.726562 446.050781 259.4375 445.070312 253.433594 C 443.96875 246.695312 448.625 240.445312 455.242188 239.464844 L 506.582031 231.378906 C 513.199219 230.398438 519.570312 234.933594 520.550781 241.550781 C 521.652344 248.289062 516.996094 254.539062 510.378906 255.519531 L 459.039062 263.605469 C 458.425781 263.605469 457.8125 263.726562 457.078125 263.726562 Z M 457.203125 263.726562 " fill-opacity="1" fill-rule="nonzero"/><path fill="#7fcdee" d="M 516.75 306.734375 C 510.871094 306.734375 505.601562 302.445312 504.621094 296.441406 L 496.535156 245.347656 C 495.429688 238.609375 500.085938 232.359375 506.703125 231.257812 C 513.566406 230.277344 519.691406 234.808594 520.671875 241.425781 L 528.757812 292.523438 C 529.859375 299.261719 525.207031 305.511719 518.589844 306.613281 C 517.976562 306.613281 517.242188 306.734375 516.628906 306.734375 Z M 516.75 306.734375 " fill-opacity="1" fill-rule="nonzero"/><path fill="#7fcdee" d="M 623.839844 295.09375 C 620.042969 295.09375 616.367188 293.378906 613.917969 290.070312 L 541.871094 191.433594 C 537.824219 185.921875 539.050781 178.324219 544.566406 174.28125 C 550.078125 170.238281 557.675781 171.460938 561.71875 176.976562 L 633.765625 275.613281 C 637.808594 281.125 636.585938 288.722656 631.070312 292.765625 C 628.863281 294.359375 626.414062 295.09375 623.839844 295.09375 Z M 623.839844 295.09375 " fill-opacity="1" fill-rule="nonzero"/><path fill="#7fcdee" d="M 586.835938 306.734375 C 586.226562 306.734375 585.613281 306.734375 584.878906 306.613281 C 578.261719 305.511719 573.605469 299.261719 574.707031 292.523438 L 582.792969 241.425781 C 583.898438 234.808594 590.023438 230.277344 596.761719 231.257812 C 603.378906 232.359375 608.035156 238.609375 606.933594 245.347656 L 598.84375 296.441406 C 597.863281 302.445312 592.71875 306.734375 586.714844 306.734375 Z M 586.835938 306.734375 " fill-opacity="1" fill-rule="nonzero"/><path fill="#7fcdee" d="M 646.386719 263.726562 C 645.773438 263.726562 645.160156 263.726562 644.425781 263.605469 L 593.085938 255.519531 C 586.347656 254.414062 581.8125 248.167969 582.917969 241.550781 C 584.019531 234.933594 590.269531 230.277344 596.886719 231.378906 L 648.226562 239.464844 C 654.964844 240.570312 659.496094 246.820312 658.394531 253.433594 C 657.414062 259.4375 652.269531 263.726562 646.265625 263.726562 Z M 646.386719 263.726562 " fill-opacity="1" fill-rule="nonzero"/><path fill="#7fcdee" d="M 551.792969 196.457031 C 546.523438 196.457031 541.746094 193.027344 540.03125 187.757812 C 538.070312 181.265625 541.625 174.402344 548.117188 172.441406 L 670.648438 134.582031 C 677.140625 132.621094 684.003906 136.175781 685.964844 142.667969 C 687.925781 149.164062 684.371094 156.023438 677.875 157.984375 L 555.347656 195.847656 C 554.121094 196.214844 552.898438 196.335938 551.792969 196.335938 Z M 551.792969 196.457031 " fill-opacity="1" fill-rule="nonzero"/><path fill="#7fcdee" d="M 673.957031 197.316406 C 672.117188 197.316406 670.402344 196.949219 668.6875 196.089844 L 619.921875 172.441406 C 613.792969 169.503906 611.34375 162.152344 614.285156 156.023438 C 617.226562 149.898438 624.578125 147.445312 630.703125 150.386719 L 679.46875 174.035156 C 685.597656 176.976562 688.046875 184.328125 685.105469 190.453125 C 683.023438 194.867188 678.613281 197.316406 674.078125 197.316406 Z M 673.957031 197.316406 " fill-opacity="1" fill-rule="nonzero"/><path fill="#7fcdee" d="M 625.3125 173.789062 C 623.351562 173.789062 621.390625 173.300781 619.554688 172.320312 C 613.550781 169.132812 611.34375 161.660156 614.527344 155.777344 L 639.402344 109.464844 C 642.589844 103.460938 650.0625 101.253906 655.945312 104.4375 C 661.949219 107.625 664.152344 115.097656 660.96875 120.980469 L 636.09375 167.296875 C 633.890625 171.460938 629.601562 173.789062 625.3125 173.789062 Z M 625.3125 173.789062 " fill-opacity="1" fill-rule="nonzero"/><path fill="#29abe2" d="M 685.105469 190.453125 C 682.902344 194.742188 678.488281 197.316406 673.957031 197.316406 C 672.242188 197.316406 670.402344 196.949219 668.6875 196.089844 L 624.332031 174.648438 L 571.765625 190.824219 L 601.910156 232.113281 L 648.226562 239.34375 C 654.964844 240.445312 659.496094 246.695312 658.515625 253.433594 C 657.535156 259.4375 652.269531 263.726562 646.386719 263.726562 C 645.773438 263.726562 645.039062 263.726562 644.425781 263.605469 L 622.371094 260.050781 L 633.765625 275.613281 C 637.6875 281.125 636.460938 288.722656 631.070312 292.765625 C 628.863281 294.359375 626.292969 295.09375 623.839844 295.09375 C 620.042969 295.09375 616.367188 293.378906 613.917969 290.070312 L 602.519531 274.386719 L 598.96875 296.441406 C 597.988281 302.445312 592.839844 306.734375 586.835938 306.734375 C 586.226562 306.734375 585.613281 306.734375 585 306.613281 C 578.261719 305.511719 573.726562 299.261719 574.828125 292.523438 L 582.058594 246.449219 L 564.535156 222.558594 L 539.542969 147.445312 L 539.542969 115.710938 L 506.335938 82.628906 C 501.558594 77.851562 501.558594 70.007812 506.335938 65.230469 C 511.113281 60.453125 518.957031 60.453125 523.734375 65.230469 L 539.542969 81.160156 L 539.542969 61.675781 C 539.542969 54.9375 545.054688 49.421875 551.792969 49.421875 C 558.53125 49.421875 564.046875 54.9375 564.046875 61.675781 L 564.046875 81.160156 L 579.851562 65.230469 C 584.632812 60.453125 592.472656 60.453125 597.253906 65.230469 C 602.03125 70.007812 602.03125 77.851562 597.253906 82.628906 L 564.046875 115.710938 L 564.046875 167.542969 L 616.855469 151.246094 L 639.28125 109.339844 C 642.589844 103.460938 649.941406 101.132812 655.945312 104.316406 C 661.824219 107.625 664.152344 114.976562 660.96875 120.980469 L 650.183594 140.953125 L 670.769531 134.582031 C 677.140625 132.621094 684.003906 136.296875 686.085938 142.667969 C 688.046875 149.164062 684.371094 156.023438 677.875 158.105469 L 658.640625 163.988281 L 679.347656 174.035156 C 685.472656 176.976562 688.046875 184.328125 685.105469 190.453125 Z M 685.105469 190.453125 " fill-opacity="1" fill-rule="nonzero"/><path fill="#99d7f1" d="M 600.804688 613.058594 C 600.804688 653.617188 567.84375 686.578125 527.289062 686.578125 C 486.730469 686.578125 453.769531 653.617188 453.769531 613.058594 C 453.769531 572.5 515.035156 478.277344 527.289062 478.277344 C 539.542969 478.277344 600.804688 572.5 600.804688 613.058594 Z M 600.804688 613.058594 " fill-opacity="1" fill-rule="nonzero"/><path fill="#7fcdee" d="M 600.804688 613.058594 C 600.804688 639.648438 586.714844 662.929688 565.515625 675.792969 C 572.378906 664.644531 576.300781 651.65625 576.300781 637.566406 C 576.300781 597.863281 517.609375 506.824219 503.640625 502.90625 C 514.175781 488.203125 523.367188 478.277344 527.289062 478.277344 C 539.542969 478.277344 600.804688 572.5 600.804688 613.058594 Z M 600.804688 613.058594 " fill-opacity="1" fill-rule="nonzero"/><path fill="#99d7f1" d="M 502.78125 527.289062 C 502.78125 547.628906 486.363281 564.046875 466.023438 564.046875 C 445.683594 564.046875 429.265625 547.628906 429.265625 527.289062 C 429.265625 506.949219 453.769531 453.769531 466.023438 453.769531 C 478.277344 453.769531 502.78125 506.949219 502.78125 527.289062 Z M 502.78125 527.289062 " fill-opacity="1" fill-rule="nonzero"/><path fill="#7fcdee" d="M 502.78125 527.289062 C 502.78125 540.644531 495.796875 552.285156 485.136719 558.65625 C 488.570312 553.140625 490.53125 546.523438 490.53125 539.542969 C 490.53125 519.203125 466.023438 466.023438 453.769531 466.023438 C 453.402344 466.023438 452.914062 466.144531 452.421875 466.144531 C 457.445312 458.671875 462.347656 453.769531 466.023438 453.769531 C 478.277344 453.769531 502.78125 506.949219 502.78125 527.289062 Z M 502.78125 527.289062 " fill-opacity="1" fill-rule="nonzero"/><path fill="#99d7f1" d="M 674.324219 490.53125 C 674.324219 510.871094 657.90625 527.289062 637.566406 527.289062 C 617.226562 527.289062 600.804688 510.871094 600.804688 490.53125 C 600.804688 470.191406 625.3125 417.011719 637.566406 417.011719 C 649.816406 417.011719 674.324219 470.191406 674.324219 490.53125 Z M 674.324219 490.53125 " fill-opacity="1" fill-rule="nonzero"/><path fill="#7fcdee" d="M 674.324219 490.53125 C 674.324219 503.886719 667.339844 515.527344 656.679688 521.898438 C 660.109375 516.382812 662.070312 509.765625 662.070312 502.78125 C 662.070312 482.441406 637.566406 429.265625 625.3125 429.265625 C 624.945312 429.265625 624.453125 429.386719 623.964844 429.386719 C 628.988281 421.914062 633.890625 417.011719 637.566406 417.011719 C 649.816406 417.011719 674.324219 470.191406 674.324219 490.53125 Z M 674.324219 490.53125 " fill-opacity="1" fill-rule="nonzero"/><path fill="#99d7f1" d="M 303.917969 492.121094 C 303.917969 483.914062 296.933594 477.171875 288.355469 477.171875 C 284.558594 477.171875 281.125 478.523438 278.429688 480.726562 C 270.589844 471.78125 258.703125 466.023438 245.46875 466.023438 C 232.238281 466.023438 220.472656 471.78125 212.511719 480.726562 C 209.816406 478.523438 206.382812 477.171875 202.585938 477.171875 C 194.007812 477.171875 187.023438 483.914062 187.023438 492.121094 C 171.953125 492.121094 159.699219 503.761719 159.699219 518.222656 C 159.699219 532.679688 171.953125 544.320312 187.023438 544.320312 C 190.210938 544.320312 193.273438 543.707031 196.089844 542.847656 C 198.542969 548.117188 203.933594 551.792969 210.425781 551.792969 C 216.921875 551.792969 222.3125 548.117188 224.640625 542.847656 C 230.765625 546.15625 237.875 547.996094 245.46875 547.996094 C 253.066406 547.996094 260.175781 546.15625 266.300781 542.847656 C 268.75 548.117188 274.140625 551.792969 280.515625 551.792969 C 286.886719 551.792969 292.398438 548.117188 294.851562 542.847656 C 297.667969 543.828125 300.730469 544.320312 303.917969 544.320312 C 318.988281 544.320312 331.242188 532.679688 331.242188 518.222656 C 331.242188 503.761719 318.988281 492.121094 303.917969 492.121094 Z M 303.917969 492.121094 " fill-opacity="1" fill-rule="nonzero"/><path fill="#7fcdee" d="M 331.242188 518.222656 C 331.242188 527.410156 326.339844 535.496094 318.867188 540.03125 C 317.394531 526.796875 305.753906 516.628906 291.664062 516.628906 C 291.664062 508.417969 284.679688 501.679688 276.101562 501.679688 C 272.304688 501.679688 268.875 503.027344 266.179688 505.234375 C 258.214844 496.289062 246.449219 490.53125 233.21875 490.53125 C 219.984375 490.53125 208.222656 496.289062 200.257812 505.234375 C 197.5625 503.027344 194.128906 501.679688 190.332031 501.679688 C 181.753906 501.679688 174.769531 508.417969 174.769531 516.628906 C 169.257812 516.628906 164.234375 518.222656 159.824219 520.792969 C 159.699219 519.9375 159.699219 519.078125 159.699219 518.222656 C 159.699219 503.761719 171.953125 492.121094 187.023438 492.121094 C 187.023438 483.914062 194.007812 477.171875 202.585938 477.171875 C 206.382812 477.171875 209.816406 478.519531 212.511719 480.726562 C 220.472656 471.78125 232.238281 466.023438 245.46875 466.023438 C 258.703125 466.023438 270.464844 471.78125 278.429688 480.726562 C 281.125 478.523438 284.558594 477.171875 288.355469 477.171875 C 296.933594 477.171875 303.917969 483.914062 303.917969 492.121094 C 318.988281 492.121094 331.242188 503.761719 331.242188 518.222656 Z M 331.242188 518.222656 " fill-opacity="1" fill-rule="nonzero"/><path fill="#99d7f1" d="M 263.851562 543.828125 C 263.851562 530.839844 252.824219 520.425781 239.34375 520.425781 C 233.339844 520.425781 227.949219 522.507812 223.660156 525.941406 C 211.285156 511.847656 192.78125 502.78125 171.953125 502.78125 C 151.121094 502.78125 132.621094 511.847656 120.246094 525.941406 C 115.957031 522.507812 110.566406 520.425781 104.5625 520.425781 C 91.082031 520.425781 80.054688 530.964844 80.054688 543.828125 C 56.40625 543.828125 37.171875 562.210938 37.171875 584.878906 C 37.171875 607.542969 56.40625 625.925781 80.054688 625.925781 C 85.078125 625.925781 89.859375 625.066406 94.390625 623.597656 C 98.191406 631.929688 106.765625 637.6875 116.816406 637.6875 C 126.863281 637.6875 135.4375 631.929688 139.238281 623.71875 C 148.917969 628.863281 160.066406 631.804688 171.953125 631.804688 C 183.839844 631.804688 194.988281 628.863281 204.667969 623.71875 C 208.464844 631.929688 217.042969 637.6875 227.089844 637.6875 C 237.136719 637.6875 245.839844 631.929688 249.515625 623.597656 C 254.046875 625.066406 258.828125 625.925781 263.851562 625.925781 C 287.5 625.925781 306.734375 607.542969 306.734375 584.878906 C 306.734375 562.210938 287.5 543.828125 263.851562 543.828125 Z M 263.851562 543.828125 " fill-opacity="1" fill-rule="nonzero"/><path fill="#7fcdee" d="M 294.238281 613.550781 C 294.359375 612.199219 294.480469 610.851562 294.480469 609.382812 C 294.480469 586.714844 275.246094 568.335938 251.597656 568.335938 C 251.597656 555.347656 240.570312 544.808594 227.089844 544.808594 C 221.085938 544.808594 215.695312 547.015625 211.40625 550.445312 C 199.03125 536.355469 180.53125 527.289062 159.699219 527.289062 C 138.871094 527.289062 120.367188 536.355469 107.992188 550.445312 C 103.703125 547.015625 98.3125 544.808594 92.308594 544.808594 C 78.832031 544.808594 67.804688 555.347656 67.804688 568.335938 C 56.039062 568.335938 45.257812 572.867188 37.539062 580.34375 C 39.867188 559.757812 58 543.828125 80.054688 543.828125 C 80.054688 530.839844 91.082031 520.304688 104.5625 520.304688 C 110.566406 520.304688 115.957031 522.507812 120.246094 525.941406 C 132.621094 511.847656 151.121094 502.78125 171.953125 502.78125 C 192.78125 502.78125 211.285156 511.847656 223.660156 525.941406 C 227.949219 522.507812 233.339844 520.304688 239.34375 520.304688 C 252.824219 520.304688 263.851562 530.839844 263.851562 543.828125 C 287.5 543.828125 306.734375 562.210938 306.734375 584.878906 C 306.734375 596.027344 302.078125 606.195312 294.238281 613.550781 Z M 294.238281 613.550781 " fill-opacity="1" fill-rule="nonzero"/></g></g></g><path fill="#aa1e23" d="M 70.859375 588.800781 L 84.554688 590.210938 C 90.0625 590.777344 95.289062 587.808594 97.550781 582.867188 C 108.140625 559.425781 108.707031 532.167969 114.070312 506.75 C 124.238281 458.308594 151.917969 415.519531 180.445312 375.128906 C 209.398438 334.035156 241.171875 292.796875 285.375 268.648438 C 313.621094 253.113281 345.535156 245.488281 377.59375 243.226562 C 492.265625 235.035156 608.773438 300.988281 660.746094 403.515625 C 681.929688 445.175781 692.945312 491.355469 701.839844 537.253906 C 706.078125 559.425781 710.738281 583.292969 728.390625 597.980469 L 745.480469 590.492188 C 747.597656 556.035156 738.136719 521.859375 728.816406 488.671875 C 717.09375 447.011719 705.371094 404.925781 683.339844 367.503906 C 653.261719 316.238281 605.667969 276.839844 553.273438 249.015625 C 518.109375 230.375 480.261719 216.535156 440.863281 211.027344 C 371.804688 201.144531 299.78125 218.796875 241.171875 256.785156 C 187.507812 291.523438 148.246094 341.519531 120.566406 398.429688 C 106.445312 427.664062 91.757812 455.910156 82.863281 487.542969 C 80.460938 495.875 62.382812 587.8125 69.304688 588.65625 Z M 70.859375 588.800781 " fill-opacity="1" fill-rule="nonzero"/><path fill="#f24678" d="M 106.164062 572.839844 C 113.929688 608.851562 132.007812 571.710938 136.242188 554.90625 C 158.132812 469.183594 199.230469 384.589844 269.980469 331.351562 C 340.734375 278.109375 445.378906 263.988281 517.96875 314.6875 C 537.457031 328.242188 553.839844 345.613281 569.65625 363.265625 C 614.28125 412.976562 657.355469 470.03125 663.429688 536.6875 C 664.839844 552.363281 664.417969 568.746094 671.761719 582.726562 C 679.105469 596.566406 698.167969 605.886719 710.878906 596.707031 C 716.667969 490.226562 673.171875 382.191406 595.21875 309.460938 C 585.332031 300 574.597656 291.523438 563.160156 284.039062 C 551.582031 276.980469 539.433594 270.90625 526.867188 265.824219 C 456.960938 236.589844 376.746094 222.183594 306.136719 249.015625 C 256.988281 267.800781 216.601562 304.941406 185.8125 347.449219 C 157.851562 386.144531 135.820312 429.640625 116.472656 473.136719 C 108.421875 491.214844 101.222656 509.148438 100.089844 529.0625 C 100.089844 532.453125 102.492188 555.753906 106.164062 572.839844 Z M 106.164062 572.839844 " fill-opacity="1" fill-rule="nonzero"/><path fill="#f9bb1b" d="M 132.855469 554.625 C 131.582031 569.453125 132.429688 582.445312 138.363281 586.820312 C 144.574219 591.339844 153.753906 588.941406 159.121094 583.292969 C 164.488281 577.785156 166.75 570.15625 169.007812 562.671875 C 185.390625 508.019531 205.019531 453.226562 238.773438 407.1875 C 272.523438 361.148438 322.65625 324.429688 379.289062 318.214844 C 404.707031 315.390625 430.410156 318.78125 454.277344 327.960938 C 468.542969 333.609375 482.238281 340.953125 494.808594 349.710938 C 556.664062 391.652344 600.160156 455.625 616.683594 528.496094 C 620.636719 546.574219 622.898438 564.933594 627.417969 582.867188 C 628.6875 587.953125 630.382812 593.316406 634.054688 597.132812 C 642.808594 606.167969 659.617188 601.507812 666.535156 591.058594 C 673.597656 580.609375 673.457031 566.910156 672.183594 554.339844 C 664.417969 478.082031 622.898438 408.738281 570.644531 352.816406 C 551.722656 332.621094 531.101562 313.695312 506.953125 299.855469 C 441.566406 262.574219 356.550781 269.636719 291.449219 307.484375 C 243.289062 335.445312 205.300781 378.378906 178.1875 426.535156 C 165.335938 448.988281 154.320312 472.289062 145.28125 496.4375 C 139.070312 515.503906 134.972656 534.851562 132.855469 554.625 Z M 132.855469 554.625 " fill-opacity="1" fill-rule="nonzero"/><path fill="#84c086" d="M 167.453125 588.800781 C 167.878906 589.222656 168.300781 589.503906 168.726562 589.789062 C 176.351562 595.011719 187.367188 591.199219 193.296875 584.28125 C 199.230469 577.21875 201.488281 567.898438 204.03125 559 C 218.011719 508.867188 243.007812 462.546875 277.464844 423.570312 C 301.757812 396.03125 331.695312 371.882812 367.285156 362.558594 C 419.394531 349.003906 476.730469 371.035156 514.015625 409.871094 C 551.296875 448.707031 570.644531 502.089844 577.566406 555.46875 C 579.683594 572.417969 581.800781 591.339844 594.792969 602.355469 C 597.335938 604.898438 600.867188 606.3125 604.398438 606.3125 C 608.773438 606.027344 612.304688 602.640625 614.988281 599.109375 C 631.511719 577.359375 630.101562 546.996094 623.605469 520.589844 C 608.773438 459.722656 571.351562 405.773438 523.902344 365.101562 C 495.515625 340.8125 462.328125 320.335938 425.609375 313.414062 C 372.933594 303.527344 317.433594 322.875 275.914062 356.910156 C 217.164062 405.066406 172.960938 487.824219 162.230469 562.8125 C 160.816406 571.992188 160.675781 583.007812 167.453125 588.800781 Z M 167.453125 588.800781 " fill-opacity="1" fill-rule="nonzero"/><path fill="#2980b7" d="M 205.300781 590.777344 L 205.726562 590.777344 C 219.847656 590.492188 227.332031 574.535156 232.417969 561.402344 C 246.398438 525.25 265.460938 491.214844 289.1875 460.425781 C 303.875 441.363281 320.679688 423.285156 341.441406 411.28125 C 395.953125 379.648438 474.191406 399.984375 506.390625 454.214844 C 528.84375 491.921875 529.125 538.804688 544.660156 579.761719 C 548.613281 590.210938 556.382812 602.074219 567.539062 601.085938 C 581.09375 599.8125 584.910156 582.019531 584.34375 568.464844 C 581.519531 504.773438 558.5 439.949219 511.332031 396.878906 C 464.164062 353.804688 391.152344 337.28125 333.957031 365.808594 C 314.46875 375.550781 297.660156 389.816406 282.410156 405.351562 C 256.285156 432.183594 234.675781 462.96875 218.152344 496.582031 C 211.515625 510.136719 203.464844 525.53125 199.792969 540.21875 C 198.382812 545.585938 194.570312 589.929688 205.300781 590.777344 Z M 205.300781 590.777344 " fill-opacity="1" fill-rule="nonzero"/></svg>